<svg width="20" height="20" viewBox="0 0 20 20" fill="none" xmlns="http://www.w3.org/2000/svg">
<path d="M19.4 16.6L16.6 13.8C17.5 12.4 18 10.8 18 9C18 4 14 0 9 0C4 0 0 4 0 9C0 14 4 18 9 18C10.8 18 12.4 17.5 13.8 16.6L16.6 19.4C17.4 20.2 18.6 20.2 19.4 19.4C20.2 18.6 20.2 17.4 19.4 16.6ZM9 16C5.1 16 2 12.9 2 9C2 5.1 5.1 2 9 2C12.9 2 16 5.1 16 9C16 12.9 12.9 16 9 16Z" fill="#7988A4"/>
<path d="M12 6H6C5.4 6 5 6.5 5 7C5 7.6 5.4 8 6 8H12C12.6 8 13 7.6 13 7C13 6.5 12.6 6 12 6Z" fill="#7988A4"/>
<path d="M9 10H6C5.4 10 5 10.4 5 11C5 11.6 5.4 12 6 12H9C9.6 12 10 11.6 10 11C10 10.5 9.6 10 9 10Z" fill="#7988A4"/>
</svg>
