<svg width="28" height="28" viewBox="0 0 28 28" fill="none" xmlns="http://www.w3.org/2000/svg">
<path d="M25.7208 25.6666C26.2386 25.2308 26.3771 24.4822 26.0438 23.8926L22.8393 18.1912C22.5368 17.6528 21.7113 17.2939 20.7782 17.2837C19.6246 18.8987 18.0044 20.724 15.7331 22.6108C15.2819 22.9851 14.7076 23.1953 14.118 23.1953C13.5284 23.1953 12.9541 22.9902 12.5029 22.6108C10.2316 20.724 8.61143 18.8987 7.45782 17.2837C6.52467 17.2939 5.69407 17.6528 5.39669 18.1912L2.18196 23.8926C1.84869 24.4822 1.982 25.2308 2.50497 25.6666C2.76133 25.8819 3.08434 25.9999 3.41761 25.9999H8.30892H19.922H24.8133C25.1414 25.9999 25.4644 25.8819 25.7208 25.6666Z" fill="url(#paint0_linear)"/>
<path d="M14.1136 6.87061C12.4986 6.87061 11.186 8.18316 11.186 9.79822C11.186 10.1828 11.4988 10.5006 11.8885 10.5006C12.273 10.5006 12.5909 10.1879 12.5909 9.79822C12.5909 8.95736 13.2779 8.27032 14.1188 8.27032C14.5033 8.27032 14.8212 7.95756 14.8212 7.5679C14.8161 7.18336 14.4982 6.87061 14.1136 6.87061Z" fill="url(#paint1_linear)"/>
<path d="M21.8242 9.711C21.8242 5.35804 18.2198 1.85106 13.836 2.00487C9.99579 2.13818 6.80157 5.13757 6.43754 8.96243C6.36576 9.72638 6.40677 10.4698 6.54008 11.1774C6.54008 11.1774 6.55546 11.2594 6.59135 11.4183C6.70928 11.9516 6.88873 12.4643 7.1092 12.9462C7.8834 14.7818 9.67278 17.8478 13.6822 21.1805C13.9283 21.3855 14.2924 21.3855 14.5385 21.1805C18.5479 17.8478 20.3373 14.7869 21.1115 12.9462C21.3371 12.4592 21.5114 11.9516 21.6293 11.4183C21.6652 11.2594 21.6806 11.1774 21.6806 11.1774C21.778 10.7005 21.8242 10.2083 21.8242 9.711ZM14.1129 14.4895C11.5237 14.4895 9.42155 12.3874 9.42155 9.79816C9.42155 7.20894 11.5237 5.10681 14.1129 5.10681C16.7021 5.10681 18.8043 7.20894 18.8043 9.79816C18.8043 12.3874 16.7021 14.4895 14.1129 14.4895Z" fill="url(#paint2_linear)"/>
<defs>
<linearGradient id="paint0_linear" x1="14.1122" y1="17.2837" x2="14.1122" y2="25.9999" gradientUnits="userSpaceOnUse">
<stop stop-color="#FF8989"/>
<stop offset="1" stop-color="#FA5252"/>
</linearGradient>
<linearGradient id="paint1_linear" x1="13.0036" y1="6.87061" x2="13.0036" y2="10.5006" gradientUnits="userSpaceOnUse">
<stop stop-color="#FF8989"/>
<stop offset="1" stop-color="#FA5252"/>
</linearGradient>
<linearGradient id="paint2_linear" x1="14.1134" y1="2" x2="14.1134" y2="21.3343" gradientUnits="userSpaceOnUse">
<stop stop-color="#FF8989"/>
<stop offset="1" stop-color="#FA5252"/>
</linearGradient>
</defs>
</svg>
