<svg width="24" height="24" viewBox="0 0 24 24" fill="none" xmlns="http://www.w3.org/2000/svg">
<g clip-path="url(#clip0)">
<path d="M6.39987 5.20033V3.60036C6.39987 3.37946 6.22077 3.20036 5.99988 3.20036H0.399992C0.179098 3.20036 0 3.37946 0 3.60036V5.20033H6.39987Z" fill="#7988A4"/>
<path d="M0 6.00038V19.2001H6.39987V6.00038H0ZM4.7999 11.2003H1.59997C1.37907 11.2003 1.19998 11.0212 1.19998 10.8003V7.60035C1.19998 7.37946 1.37907 7.20036 1.59997 7.20036H4.7999C5.0208 7.20036 5.1999 7.37946 5.1999 7.60035V10.8003C5.1999 11.0212 5.0208 11.2003 4.7999 11.2003Z" fill="#7988A4"/>
<path d="M0 21.6001V23.6001C0 23.821 0.179098 24.0001 0.399992 24.0001H5.99988C6.22077 24.0001 6.39987 23.821 6.39987 23.6001V21.6001H0Z" fill="#7988A4"/>
<path d="M0 19.9999H6.39987V20.7999H0V19.9999Z" fill="#7988A4"/>
<path d="M7.19995 19.9999H12.3999V20.7999H7.19995V19.9999Z" fill="#7988A4"/>
<path d="M12.3999 1.60022V0.400244C12.3999 0.17935 12.2208 0.00025177 11.9999 0.00025177H7.59994C7.37905 0.00025177 7.19995 0.17935 7.19995 0.400244V1.60022H12.3999Z" fill="#7988A4"/>
<path d="M7.19995 4.40043H12.3999V19.2001H7.19995V4.40043Z" fill="#7988A4"/>
<path d="M7.19995 21.6001V23.6001C7.19995 23.821 7.37905 24.0001 7.59994 24.0001H11.9999C12.2208 24.0001 12.3999 23.821 12.3999 23.6001V21.6001H7.19995Z" fill="#7988A4"/>
<path d="M7.19995 2.4004H12.3999V3.60038H7.19995V2.4004Z" fill="#7988A4"/>
<path d="M13.1902 8.28358L13.4042 9.10524L20.1783 7.29883L19.9641 6.47717L13.1902 8.28358Z" fill="#7988A4"/>
<path d="M16.5328 21.0973L23.3067 19.2909L22.8778 17.6466L16.1035 19.453L16.5328 21.0973Z" fill="#7988A4"/>
<path d="M22.676 16.8727L20.3805 8.07283L13.6062 9.87924L15.9017 18.6791L22.676 16.8727Z" fill="#7988A4"/>
<path d="M12.9882 7.50932L19.7619 5.70311L19.1877 3.50022C19.1285 3.28695 18.9106 3.15941 18.6957 3.21234L12.6958 4.8123C12.4839 4.87031 12.3576 5.0873 12.4117 5.30018L12.9882 7.50932Z" fill="#7988A4"/>
<path d="M23.5086 20.0649L16.7344 21.8713L17.2115 23.7C17.2392 23.8031 17.3068 23.891 17.3996 23.9441C17.4599 23.9806 17.5291 23.9999 17.5996 23.9999C17.6345 23.9999 17.6695 23.9958 17.7035 23.988L23.7034 22.3881C23.9153 22.3301 24.0416 22.1129 23.9875 21.9L23.5086 20.0649Z" fill="#7988A4"/>
</g>
<defs>
<clipPath id="clip0">
<rect width="24" height="24" fill="white"/>
</clipPath>
</defs>
</svg>
