<svg width="32" height="37" viewBox="0 0 32 37" fill="none" xmlns="http://www.w3.org/2000/svg">
<path fill-rule="evenodd" clip-rule="evenodd" d="M18.4818 13.0095L22.2978 17.4768C22.3551 17.5438 22.3831 17.6272 22.4271 17.7016C22.4751 17.782 22.5324 17.8535 22.5658 17.9429C22.6311 18.123 22.6671 18.3136 22.6671 18.5043C22.6671 18.6993 22.6311 18.8929 22.5644 19.0746C22.4964 19.2562 22.3991 19.4215 22.2751 19.5585L18.2764 24.0243C17.7551 24.6066 16.9111 24.6066 16.3911 24.0243C15.8698 23.4436 15.8698 22.501 16.3911 21.9188L18.1151 19.9933H10.6671C9.92978 19.9933 9.33378 19.3277 9.33378 18.5043C9.33378 17.6823 9.92978 17.0152 10.6671 17.0152H18.2178L16.5524 15.0659C16.0444 14.4703 16.0631 13.5292 16.5964 12.9603C17.1298 12.3915 17.9738 12.4153 18.4818 13.0095ZM2.66711 18.5042C2.66711 26.7166 8.64845 33.3952 16.0004 33.3952C23.3524 33.3952 29.3338 26.7166 29.3338 18.5042C29.3338 10.2934 23.3524 3.61328 16.0004 3.61328C8.64845 3.61328 2.66711 10.2934 2.66711 18.5042Z" fill="url(#paint0_linear)"/>
<mask id="mask0" mask-type="alpha" maskUnits="userSpaceOnUse" x="2" y="3" width="28" height="31">
<path fill-rule="evenodd" clip-rule="evenodd" d="M18.4818 13.0095L22.2978 17.4768C22.3551 17.5438 22.3831 17.6272 22.4271 17.7016C22.4751 17.782 22.5324 17.8535 22.5658 17.9429C22.6311 18.123 22.6671 18.3136 22.6671 18.5043C22.6671 18.6993 22.6311 18.8929 22.5644 19.0746C22.4964 19.2562 22.3991 19.4215 22.2751 19.5585L18.2764 24.0243C17.7551 24.6066 16.9111 24.6066 16.3911 24.0243C15.8698 23.4436 15.8698 22.501 16.3911 21.9188L18.1151 19.9933H10.6671C9.92978 19.9933 9.33378 19.3277 9.33378 18.5043C9.33378 17.6823 9.92978 17.0152 10.6671 17.0152H18.2178L16.5524 15.0659C16.0444 14.4703 16.0631 13.5292 16.5964 12.9603C17.1298 12.3915 17.9738 12.4153 18.4818 13.0095ZM2.66711 18.5042C2.66711 26.7166 8.64845 33.3952 16.0004 33.3952C23.3524 33.3952 29.3338 26.7166 29.3338 18.5042C29.3338 10.2934 23.3524 3.61328 16.0004 3.61328C8.64845 3.61328 2.66711 10.2934 2.66711 18.5042Z" fill="white"/>
</mask>
<g mask="url(#mask0)">
<rect y="0.635742" width="32" height="35.7383" fill="url(#paint1_linear)"/>
</g>
<defs>
<linearGradient id="paint0_linear" x1="16.0004" y1="3.61328" x2="16.0004" y2="33.3952" gradientUnits="userSpaceOnUse">
<stop stop-color="#FF8989"/>
<stop offset="1" stop-color="#FA5252"/>
</linearGradient>
<linearGradient id="paint1_linear" x1="16" y1="0.635742" x2="16" y2="36.3741" gradientUnits="userSpaceOnUse">
<stop stop-color="#FF8989"/>
<stop offset="1" stop-color="#FA5252"/>
</linearGradient>
</defs>
</svg>
