<svg width="24" height="24" viewBox="0 0 24 24" fill="none" xmlns="http://www.w3.org/2000/svg">
<path d="M6.32812 5.625C7.88143 5.625 9.14062 4.3658 9.14062 2.8125C9.14062 1.2592 7.88143 0 6.32812 0C4.77482 0 3.51562 1.2592 3.51562 2.8125C3.51562 4.3658 4.77482 5.625 6.32812 5.625Z" fill="#7988A4"/>
<path d="M17.6719 5.625C18.0605 5.625 18.375 5.31052 18.375 4.92188V3.51562C18.375 3.12698 18.0605 2.8125 17.6719 2.8125C17.2832 2.8125 16.9688 3.12698 16.9688 3.51562V4.92188C16.9688 5.31052 17.2832 5.625 17.6719 5.625Z" fill="#7988A4"/>
<path d="M14.689 6.44885C14.9636 6.72349 15.4086 6.72354 15.6832 6.44885C15.9579 6.17421 15.9579 5.72922 15.6832 5.45458L14.6883 4.45961C14.4136 4.18497 13.9687 4.18497 13.694 4.45961C13.4194 4.73425 13.4194 5.17924 13.694 5.45388L14.689 6.44885Z" fill="#7988A4"/>
<path d="M20.6546 6.44885L21.6496 5.45388C21.9242 5.17924 21.9242 4.73425 21.6496 4.45961C21.3749 4.18497 20.9299 4.18497 20.6553 4.45961L19.6603 5.45458C19.3857 5.72922 19.3857 6.17421 19.6603 6.44885C19.935 6.72349 20.3799 6.72354 20.6546 6.44885Z" fill="#7988A4"/>
<path d="M11.25 9.14062C11.25 8.75198 10.9355 8.4375 10.5469 8.4375H2.10938C1.72073 8.4375 1.40625 8.75198 1.40625 9.14062V11.25H11.25V9.14062Z" fill="#7988A4"/>
<path d="M22.5938 9.14062C22.5938 8.75198 22.2793 8.4375 21.8906 8.4375H13.4531C13.0645 8.4375 12.75 8.75198 12.75 9.14062V11.25H22.5938V9.14062Z" fill="#7988A4"/>
<path d="M3.53345 7.03125H9.1201C8.3776 6.06984 7.39444 5.625 6.32804 5.625C5.18406 5.625 4.17587 6.18262 3.53345 7.03125Z" fill="#7988A4"/>
<path d="M23.2969 12.6562H0.703125C0.314484 12.6562 0 12.9707 0 13.3594C0 13.8343 0 23.7633 0 23.2969C0 23.6852 0.314812 24 0.703125 24C1.09144 24 1.40625 23.6852 1.40625 23.2969V22.5938H22.5938V23.2969C22.5938 23.6855 22.9082 24 23.2969 24C23.6855 24 24 23.6855 24 23.2969C24 22.1631 24 13.1067 24 13.3594C24 12.9707 23.6855 12.6562 23.2969 12.6562Z" fill="#7988A4"/>
</svg>
