<svg width="23" height="22" viewBox="0 0 23 22" fill="none" xmlns="http://www.w3.org/2000/svg">
<path d="M15.1788 10.6818L18.2363 6.60263C18.7398 5.93213 18.997 5.1264 18.997 4.31818C18.997 2.21271 17.2842 0.5 15.1788 0.5C13.0733 0.5 11.3606 2.21271 11.3606 4.31818C11.3606 5.1491 11.6241 5.93958 12.1219 6.60395L15.1788 10.6818ZM15.1788 2.40909C16.2314 2.40909 17.0879 3.26553 17.0879 4.31818C17.0879 5.37083 16.2314 6.22727 15.1788 6.22727C14.1261 6.22727 13.2697 5.37083 13.2697 4.31818C13.2697 3.26553 14.1261 2.40909 15.1788 2.40909Z" fill="white"/>
<path d="M15.1788 4.95454C15.53 4.95454 15.8152 4.66934 15.8152 4.31818C15.8152 3.96702 15.53 3.68182 15.1788 3.68182C14.8277 3.68182 14.5425 3.96702 14.5425 4.31818C14.5425 4.66934 14.8277 4.95454 15.1788 4.95454Z" fill="white"/>
<path d="M15.864 11.8899C16.6499 11.7593 17.0879 11.4435 17.0879 11.3182C17.0879 11.2688 16.9326 11.0956 16.5758 10.9404L15.864 11.8899Z" fill="white"/>
<path d="M13.2698 11.3182C13.2698 11.4435 13.7078 11.7593 14.4936 11.8899L13.7818 10.9404C13.4251 11.0956 13.2698 11.2688 13.2698 11.3182Z" fill="white"/>
<path d="M19.2542 7.3669L17.3551 9.90075C17.9899 10.2456 18.3606 10.7421 18.3606 11.3182C18.3606 12.2747 17.3029 13.0237 15.8152 13.1911V20.6578L22.2212 18.1125V4.01422L20.231 4.79377C20.1423 5.72147 19.8138 6.62182 19.2542 7.3669Z" fill="white"/>
<path d="M5.63333 3.36381L0.5 7.18183V21.5L5.63333 17.6817V3.36381Z" fill="white"/>
<path d="M14.5424 20.2273V13.1912C13.0547 13.0238 11.9969 12.2747 11.9969 11.3182C11.9969 10.7422 12.3676 10.2457 13.0025 9.90079L11.1034 7.3671C10.5036 6.56651 10.1747 5.62671 10.1132 4.63687L6.90601 3.26256V17.3739L14.5424 20.6469V20.2273Z" fill="white"/>
</svg>
