<svg width="24" height="24" viewBox="0 0 24 24" fill="none" xmlns="http://www.w3.org/2000/svg">
<path d="M21.3659 19.1721C21.3689 18.7331 21.202 18.3175 20.8918 18.0014C20.5815 17.6882 20.1659 17.5155 19.7269 17.5155H1.58643V20.7965H19.6947C20.6079 20.7965 21.3572 20.0677 21.3659 19.1721Z" fill="#7988A4"/>
<path d="M0.731709 23.4305H19.683C22.0449 23.4305 23.9913 21.531 24 19.1691C24.0059 16.8071 22.0859 14.8813 19.7269 14.8813H0.731709C0.327805 14.8813 0 15.2091 0 15.613V15.9057C0 16.3096 0.327805 16.6374 0.731709 16.6374H19.7269C20.5317 16.6374 21.2517 17.0179 21.7113 17.6091C22.0508 18.0422 22.2498 18.5896 22.2439 19.1807C22.2381 19.7515 22.0391 20.2754 21.7113 20.6939C21.243 21.291 20.5083 21.6744 19.6947 21.6744H0.731709C0.327805 21.6744 0 22.0022 0 22.4061V22.6988C0 23.1027 0.327805 23.4305 0.731709 23.4305Z" fill="#7988A4"/>
<path d="M8.81569 14.0036C8.9298 14.0152 13.2557 14.0152 13.3698 14.0036C15.3425 13.784 16.8879 11.7089 16.8879 9.18013C16.8879 6.505 15.1581 4.33622 13.0245 4.33622C12.5679 4.33622 12.1288 4.43573 11.722 4.61719C11.5903 4.67573 11.4528 4.71671 11.3123 4.7372C11.3093 4.63476 11.3123 4.52646 11.324 4.40354C11.3913 3.53427 11.8771 2.67085 12.6059 2.18792C12.802 2.05621 12.8869 1.79865 12.7639 1.58792C12.6498 1.39182 12.363 1.29816 12.1639 1.42987C11.1015 2.13524 10.4606 3.3528 10.443 4.60841C10.042 4.4328 9.61178 4.33622 9.16395 4.33622C7.03032 4.33622 5.30054 6.505 5.30054 9.18013C5.29764 11.7089 6.84301 13.784 8.81569 14.0036Z" fill="#7988A4"/>
<path d="M9.38622 3.84432C9.75793 3.8853 10.077 3.57212 10.033 3.20042C9.93646 2.32822 9.43305 0.89115 7.21452 0.575052C6.83989 0.522369 6.51208 0.83554 6.55013 1.2131C6.64086 2.10871 7.1355 3.58969 9.38622 3.84432Z" fill="#7988A4"/>
</svg>
