<svg width="81" height="80" viewBox="0 0 81 80" fill="none" xmlns="http://www.w3.org/2000/svg">
<path d="M40.1971 78.3031L17.3486 45.1515L63.7729 44.8485L40.1971 78.3031Z" fill="#3655E1"/>
<path d="M68.2577 29.8181C68.1971 45.1514 55.6516 57.5757 40.2577 57.4545C24.9243 57.3939 12.5607 44.8484 12.6213 29.4545C12.6819 14.1211 25.2274 1.75749 40.6213 1.81809C55.9547 1.8787 68.3789 14.4242 68.2577 29.8181Z" fill="#3655E1"/>
<path d="M65.0454 29.7572C64.9848 43.3329 53.8939 54.3026 40.3181 54.242C26.6817 54.1814 15.7727 43.0905 15.8333 29.5148C15.8939 15.8784 26.9848 4.96931 40.5605 5.02991C54.1969 5.09052 65.1666 16.1814 65.0454 29.7572Z" fill="white"/>
<path d="M62.0757 29.7577C62.0151 41.6971 52.2576 51.3335 40.3182 51.2729C28.3788 51.2123 18.7424 41.4547 18.803 29.5153C18.8636 17.5759 28.6212 7.93956 40.5606 8.00016C52.5 8.06077 62.1364 17.8183 62.0757 29.7577Z" fill="white"/>
<g clip-path="url(#clip0)">
<path d="M36.2388 36.9504C36.2388 39.3003 38.1503 41.2118 40.5001 41.2118C42.85 41.2118 44.7615 39.3003 44.7615 36.9504C44.7615 34.6292 42.8767 32.6891 40.5001 32.6891C38.1146 32.6891 36.2388 34.6392 36.2388 36.9504ZM38.9937 35.444C39.8246 34.6131 41.1757 34.6131 42.0066 35.444C42.284 35.7214 42.284 36.1709 42.0066 36.4483C41.7292 36.7257 41.2797 36.7257 41.0023 36.4483C40.7249 36.1709 40.2754 36.1709 39.998 36.4483C39.7213 36.7251 39.7213 37.1759 39.998 37.4526C40.2754 37.73 40.7249 37.73 41.0023 37.4526C41.2797 37.1752 41.7292 37.1752 42.0066 37.4526C42.284 37.73 42.284 38.1795 42.0066 38.4569C41.1765 39.287 39.8246 39.2879 38.9937 38.4569C38.1628 37.626 38.1628 36.2749 38.9937 35.444Z" fill="#3655E1"/>
<path d="M36.2389 24.3896V21.5868C34.8254 21.2303 33.3869 21.2303 31.9775 21.5868V24.3896C33.3885 24.0827 34.814 24.0826 36.2389 24.3896Z" fill="#3655E1"/>
<path d="M48.2599 25.4606L47.7272 25.421C47.5115 25.4051 47.3145 25.2913 47.1932 25.1131L46.8921 24.6713L46.5911 25.1131C46.4698 25.2913 46.2728 25.4051 46.0571 25.421L45.5244 25.4606L45.7561 25.9419C45.8504 26.1368 45.8504 26.3643 45.7561 26.5592L45.5244 27.0405L46.0571 27.0801C46.2728 27.096 46.4698 27.2098 46.5911 27.388L46.8921 27.8298L47.1931 27.388C47.3145 27.2098 47.5115 27.096 47.7272 27.0801L48.2598 27.0405L48.0282 26.5592C47.9338 26.3643 47.9338 26.1368 48.0282 25.9419L48.2599 25.4606Z" fill="#3655E1"/>
<path d="M52.1699 18.3773C48.7514 16.6434 44.7859 16.5182 41.2104 17.9635V31.3524C42.9679 31.5781 44.5475 32.5434 45.4663 34.2105C47.5142 34.0778 49.6237 34.4742 51.6012 35.4588C52.0681 35.6872 52.6214 35.347 52.6214 34.82V19.0425C52.6214 18.7747 52.4085 18.4987 52.1699 18.3773ZM49.9919 27.362C50.2102 27.8133 49.9032 28.342 49.4051 28.3788L48.174 28.4704L47.479 29.4913C47.198 29.9039 46.5869 29.9046 46.3055 29.4913L45.6105 28.4704L44.3794 28.3788C43.8815 28.342 43.5743 27.8134 43.7926 27.362L44.3281 26.2502L43.7926 25.1384C43.5743 24.6872 43.8813 24.1585 44.3794 24.1216L45.6105 24.0301L46.3055 23.0091C46.569 22.6221 47.2155 22.6221 47.479 23.0091L48.174 24.0301L49.4051 24.1216C49.903 24.1585 50.2102 24.687 49.9919 25.1384L49.4564 26.2502L49.9919 27.362ZM50.4108 21.262C50.2936 21.6358 49.8941 21.8439 49.521 21.7274C47.7863 21.1857 45.9948 21.1836 44.2643 21.7281C43.8943 21.8441 43.493 21.6418 43.3737 21.2634C43.2558 20.8895 43.4639 20.4908 43.8384 20.3728C45.8428 19.743 47.934 19.743 49.9453 20.3721C50.3193 20.4893 50.528 20.8874 50.4108 21.262Z" fill="#3655E1"/>
<path d="M39.7899 17.9586C36.2717 16.5132 32.2863 16.6445 28.7715 18.4028C28.5308 18.5235 28.3789 18.7691 28.3789 19.0382V34.82C28.3789 35.3411 28.9282 35.6929 29.4068 35.4553C31.3823 34.4684 33.4699 34.0715 35.5351 34.2097C36.4558 32.5401 38.0337 31.5777 39.7899 31.3523C39.7899 31.2041 39.7898 17.815 39.7899 17.9586ZM37.6266 28.3642C37.5087 28.7381 37.112 28.9462 36.7368 28.8296C35.0021 28.288 33.2106 28.2859 31.4801 28.8303C31.1102 28.9464 30.7087 28.7441 30.5895 28.3657C30.4716 27.9918 30.6797 27.593 31.0542 27.4751C33.0586 26.846 35.1498 26.8453 37.1611 27.4744C37.5351 27.5916 37.7438 27.9897 37.6266 28.3642ZM37.6592 25.3111C37.6592 25.7991 37.1806 26.1323 36.7368 25.9888C35.0021 25.4471 33.2106 25.445 31.4801 25.9895C31.0186 26.1325 30.5569 25.7892 30.5569 25.3118V21.0505C30.5569 20.7404 30.7581 20.4658 31.0542 20.3728C33.0587 19.743 35.1498 19.743 37.1612 20.3721C37.4574 20.4644 37.6592 20.739 37.6592 21.0498V25.3111Z" fill="#3655E1"/>
</g>
<path d="M42.3788 48.3031C30.4394 48.2425 20.803 38.485 20.8636 26.5456C20.8636 22.6062 21.9545 18.9092 23.8333 15.7577C20.7424 19.4547 18.8636 24.2425 18.803 29.5153C18.7424 41.4547 28.3788 51.2122 40.3182 51.2728C48.3182 51.3334 55.3485 46.9698 59.106 40.5456C55.1667 45.3334 49.106 48.3637 42.3788 48.3031Z" fill="#BDD3FB"/>
<path d="M57.9545 10.5456C63.1666 15.5153 66.3181 21.9395 67.1666 28.0607C67.1666 23.8183 65.8939 19.2122 63.2878 15.0304C58.8636 7.81829 51.7121 3.69708 45.0454 3.63647C49.409 4.42435 53.9545 6.72738 57.9545 10.5456Z" fill="white"/>
<path d="M40.1972 78.3031L21.2881 50.9092C21.2881 50.9092 24.4396 54.1213 31.4699 57.0304C36.682 59.1516 40.2578 59.091 40.2578 59.091L40.1972 78.3031Z" fill="#397EFA"/>
<path d="M36.9243 68.9087L40.3183 73.8784L43.7728 68.9693L40.3183 70.3632L36.9243 68.9087Z" fill="white"/>
<defs>
<clipPath id="clip0">
<rect width="24.2424" height="24.2424" fill="white" transform="translate(28.3789 16.9694)"/>
</clipPath>
</defs>
</svg>
